<svg width="16" height="16" viewBox="0 0 16 16" fill="none" xmlns="http://www.w3.org/2000/svg">
<path d="M3.4 8.575L8.3 13.475C8.5 13.675 8.59583 13.9083 8.5875 14.175C8.57917 14.4417 8.475 14.675 8.275 14.875C8.075 15.0583 7.84167 15.1542 7.575 15.1625C7.30833 15.1708 7.075 15.075 6.875 14.875L0.275 8.275C0.175 8.175 0.104167 8.06667 0.0625 7.95C0.0208333 7.83333 0 7.70833 0 7.575C0 7.44167 0.0208333 7.31667 0.0625 7.2C0.104167 7.08333 0.175 6.975 0.275 6.875L6.875 0.275C7.05833 0.0916667 7.2875 0 7.5625 0C7.8375 0 8.075 0.0916667 8.275 0.275C8.475 0.475 8.575 0.7125 8.575 0.9875C8.575 1.2625 8.475 1.5 8.275 1.7L3.4 6.575H14.575C14.8583 6.575 15.0958 6.67083 15.2875 6.8625C15.4792 7.05417 15.575 7.29167 15.575 7.575C15.575 7.85833 15.4792 8.09583 15.2875 8.2875C15.0958 8.47917 14.8583 8.575 14.575 8.575H3.4Z" fill="#202022"/>
</svg>