<svg width="48" height="48" viewBox="0 0 48 48" fill="none" xmlns="http://www.w3.org/2000/svg">
<circle cx="24" cy="24" r="20.5" fill="white" stroke="#DBDBDB"/>
<path d="M24.245 22.2544V25.9722H29.4116C29.1847 27.1679 28.5039 28.1803 27.4828 28.861L30.5984 31.2785C32.4137 29.6029 33.461 27.1418 33.461 24.2181C33.461 23.5374 33.3999 22.8828 33.2864 22.2545L24.245 22.2544Z" fill="#4285F4"/>
<path d="M18.8648 25.8271L18.1621 26.365L15.6748 28.3024C17.2545 31.4355 20.492 33.5999 24.2448 33.5999C26.8367 33.5999 29.0098 32.7446 30.5982 31.2785L27.4825 28.861C26.6273 29.437 25.5363 29.7861 24.2448 29.7861C21.7488 29.7861 19.6281 28.1018 18.8688 25.8327L18.8648 25.8271Z" fill="#34A853"/>
<path d="M15.6749 19.6974C15.0204 20.989 14.6451 22.4464 14.6451 23.9999C14.6451 25.5533 15.0203 27.0109 15.6748 28.3024C15.6748 28.3111 18.8691 25.8238 18.8691 25.8238C18.6771 25.2478 18.5636 24.6369 18.5636 23.9998C18.5636 23.3626 18.6771 22.7517 18.8691 22.1757L15.6749 19.6974Z" fill="#FBBC05"/>
<path d="M24.245 18.2224C25.6588 18.2224 26.9155 18.7112 27.9191 19.6537L30.6682 16.9047C29.0013 15.3512 26.837 14.3999 24.245 14.3999C20.4922 14.3999 17.2545 16.5555 15.6749 19.6974L18.869 22.1759C19.6282 19.9068 21.749 18.2224 24.245 18.2224Z" fill="#EA4335"/>
</svg>