<svg fill="none" viewBox="0 0 48 48"><circle cx="24" cy="24" r="20.5" fill="#fff" stroke="#dbdbdb"/><path fill="#4285f4" d="M24.245 22.254v3.718h5.167a4.43 4.43 0 0 1-1.93 2.889l3.116 2.418c1.816-1.676 2.863-4.137 2.863-7.06 0-.682-.061-1.336-.175-1.965z"/><path fill="#34a853" d="m18.865 25.827-.703.538-2.487 1.937c1.58 3.134 4.817 5.298 8.57 5.298 2.592 0 4.765-.855 6.353-2.322l-3.115-2.417c-.856.576-1.947.925-3.238.925-2.496 0-4.617-1.684-5.376-3.953z"/><path fill="#fbbc05" d="M15.675 19.697A9.5 9.5 0 0 0 14.645 24c0 1.553.375 3.01 1.03 4.302 0 .01 3.194-2.478 3.194-2.478A5.8 5.8 0 0 1 18.564 24c0-.637.113-1.248.305-1.824z"/><path fill="#ea4335" d="M24.245 18.222c1.414 0 2.67.49 3.674 1.432l2.75-2.75C29 15.352 26.836 14.4 24.244 14.4c-3.753 0-6.99 2.155-8.57 5.297l3.194 2.479c.76-2.27 2.88-3.954 5.376-3.954"/></svg>