<svg fill="none" viewBox="0 0 45 41"><path fill="#bedbff" d="M36 18a3 3 0 1 0 6 0 3 3 0 0 0-6 0M0 17h31.226v2H0zm0 22h32.617v2H0zm41.719 0h2.783v2H41.72z"/><path fill="#262c33" d="M36.084 40.984q-.907 0-1.465-.058V38.68q.743.039 1.172.039.342 0 .567-.059a.9.9 0 0 0 .44-.273q.214-.215.38-.645l.176-.449-3.809-10.898h3.028l2.226 7.812h.117l2.247-7.812h3.066l-4.14 11.777q-.48 1.357-1.436 2.08-.957.732-2.569.732M32.239 37h-2.89V22.86h2.89zm-7.927-10.605h2.89V37h-2.89zm1.445-1.387q-.43 0-.8-.195a1.6 1.6 0 0 1-.577-.538 1.4 1.4 0 0 1-.205-.732q0-.4.205-.742.215-.342.576-.537a1.63 1.63 0 0 1 1.582 0q.361.195.567.537a1.37 1.37 0 0 1 0 1.474 1.55 1.55 0 0 1-.567.538q-.36.195-.78.195m-13.006 9.023q0-1.64 1.103-2.402 1.104-.762 2.842-.86 1.074-.067 2.637-.136v-.86q-.02-.663-.46-1.035-.439-.37-1.24-.37-.722 0-1.181.312a1.34 1.34 0 0 0-.576.86h-2.754a3.25 3.25 0 0 1 .644-1.68q.567-.743 1.572-1.172 1.007-.43 2.373-.43 1.212 0 2.227.38 1.026.382 1.64 1.192.626.801.626 2.022V37H19.47v-1.465h-.078q-.42.772-1.201 1.22-.771.44-1.904.44-1.035 0-1.836-.351a2.87 2.87 0 0 1-1.25-1.075q-.45-.712-.45-1.738m2.773-.078q0 .595.43.928.44.322 1.152.322.645 0 1.152-.264.518-.263.801-.722.283-.46.274-1.006v-.771a32 32 0 0 0-1.133.048q-.674.039-1.035.078-.762.078-1.202.43-.44.351-.439.957M5.04 37.176q-1.231 0-2.208-.635-.976-.645-1.543-1.875-.566-1.24-.566-2.959 0-1.758.576-2.979.576-1.23 1.553-1.845a4 4 0 0 1 2.187-.625q1.2 0 1.924.556.723.558 1.084 1.358h.098v-5.313h2.89V37H8.184v-1.7h-.137a3.5 3.5 0 0 1-1.104 1.339q-.732.537-1.904.537m.898-2.305q.713 0 1.22-.39.508-.401.772-1.114.273-.722.273-1.68 0-1.445-.596-2.285-.595-.84-1.67-.84t-1.66.85-.586 2.276q0 1.445.586 2.314.586.87 1.66.87M30.542 6.563H28.55v5.175q0 .585.254.82.255.235.742.255.625 0 1.152-.06v2.286q-.517.098-1.543.098-1.63 0-2.568-.752-.937-.752-.928-2.237V6.563h-1.464V4.395h1.464v-2.54h2.891v2.54h1.992zm-12.517 8.652q-1.582 0-2.754-.684a4.6 4.6 0 0 1-1.807-1.924q-.634-1.25-.634-2.88 0-1.632.625-2.872a4.54 4.54 0 0 1 1.806-1.914q1.182-.683 2.764-.683t2.764.683a4.5 4.5 0 0 1 1.816 1.914q.635 1.24.635 2.872 0 1.63-.635 2.88a4.6 4.6 0 0 1-1.816 1.924q-1.182.684-2.764.684m.02-2.246q.722 0 1.23-.41.508-.42.762-1.153.254-.732.254-1.68 0-.946-.254-1.68-.254-.741-.762-1.161t-1.23-.42q-.733 0-1.25.42-.508.42-.772 1.162-.264.732-.264 1.68 0 .938.264 1.68.264.732.772 1.152.517.41 1.25.41M5.04 15.176q-1.231 0-2.208-.635-.976-.645-1.543-1.875-.566-1.24-.566-2.959 0-1.758.576-2.978.576-1.23 1.553-1.846a4 4 0 0 1 2.187-.625q1.2 0 1.924.556.723.558 1.084 1.358h.098V.859h2.89V15H8.184v-1.7h-.137a3.5 3.5 0 0 1-1.104 1.339q-.732.537-1.904.537m.898-2.305q.713 0 1.22-.39.508-.402.772-1.114.273-.723.273-1.68 0-1.445-.596-2.285-.595-.84-1.67-.84t-1.66.85-.586 2.276q0 1.444.586 2.314t1.66.87"/></svg>