<svg fill="none" viewBox="0 0 85 19"><path fill="#bedbff" d="M34 15a2 2 0 1 0 4 0 2 2 0 0 0-4 0"/><path fill="#bedbff" d="M0 17h72.766v2H0zm81.86 0h2.787v2h-2.788z"/><path fill="#262c33" d="M76.229 18.984q-.909 0-1.465-.058V16.68q.743.039 1.172.039.342 0 .566-.059a.9.9 0 0 0 .44-.273q.215-.215.38-.645l.176-.449L73.69 4.395h3.027l2.227 7.812h.117l2.246-7.812h3.066l-4.14 11.777q-.48 1.357-1.436 2.08-.957.732-2.568.732M72.384 15h-2.891V.86h2.89zM64.456 4.395h2.89V15h-2.89zm1.446-1.387q-.43 0-.801-.195a1.6 1.6 0 0 1-.576-.538 1.4 1.4 0 0 1-.205-.732q0-.4.205-.742.215-.342.576-.537a1.63 1.63 0 0 1 1.582 0q.361.195.566.537a1.37 1.37 0 0 1 0 1.474 1.55 1.55 0 0 1-1.347.733m-13.006 9.023q0-1.64 1.104-2.402 1.103-.762 2.841-.86 1.075-.067 2.637-.136v-.86q-.02-.663-.459-1.035-.44-.37-1.24-.37-.723 0-1.182.312a1.34 1.34 0 0 0-.576.86h-2.754a3.25 3.25 0 0 1 .645-1.68q.566-.742 1.572-1.173 1.006-.43 2.373-.43 1.211 0 2.227.382 1.025.38 1.64 1.191.625.801.625 2.022V15h-2.734v-1.465h-.078q-.42.772-1.201 1.22-.773.44-1.905.44-1.035 0-1.836-.351a2.87 2.87 0 0 1-1.25-1.074q-.45-.713-.449-1.739m2.774-.078q0 .596.43.928.438.322 1.152.322.644 0 1.152-.263.518-.264.8-.723.284-.46.274-1.006v-.771q-.459.009-1.133.048t-1.035.078q-.762.078-1.201.43-.44.351-.44.957m-10.485 3.223q-1.23 0-2.207-.635-.977-.645-1.543-1.875-.567-1.24-.567-2.959 0-1.758.576-2.978.577-1.23 1.553-1.846a4 4 0 0 1 2.188-.625q1.2 0 1.923.556.723.558 1.084 1.358h.098V.859h2.89V15h-2.85v-1.7h-.138a3.5 3.5 0 0 1-1.103 1.339q-.732.537-1.904.537m.898-2.305q.713 0 1.22-.39.509-.402.772-1.114.274-.723.274-1.68 0-1.445-.596-2.285t-1.67-.84-1.66.85-.586 2.276q0 1.444.586 2.314t1.66.87m-15.54-6.309H28.55v5.175q0 .585.254.82.255.235.742.255.625 0 1.152-.06v2.286q-.517.098-1.543.098-1.63 0-2.568-.752-.937-.752-.928-2.237V6.563h-1.464V4.395h1.464v-2.54h2.891v2.54h1.992zm-12.517 8.652q-1.582 0-2.754-.684a4.6 4.6 0 0 1-1.807-1.924q-.634-1.25-.634-2.88 0-1.632.625-2.872a4.54 4.54 0 0 1 1.806-1.914q1.182-.683 2.764-.683t2.764.683a4.5 4.5 0 0 1 1.816 1.914q.635 1.24.635 2.872 0 1.63-.635 2.88a4.6 4.6 0 0 1-1.816 1.924q-1.182.684-2.764.684m.02-2.246q.722 0 1.23-.41.508-.42.762-1.153.254-.732.254-1.68 0-.946-.254-1.68-.254-.741-.762-1.161t-1.23-.42q-.733 0-1.25.42-.508.42-.772 1.162-.264.732-.264 1.68 0 .938.264 1.68.264.732.772 1.152.517.41 1.25.41M5.04 15.176q-1.231 0-2.208-.635-.976-.645-1.543-1.875-.566-1.24-.566-2.959 0-1.758.576-2.978.576-1.23 1.553-1.846a4 4 0 0 1 2.187-.625q1.2 0 1.924.556.723.558 1.084 1.358h.098V.859h2.89V15H8.184v-1.7h-.137a3.5 3.5 0 0 1-1.104 1.339q-.732.537-1.904.537m.898-2.305q.713 0 1.22-.39.508-.402.772-1.114.273-.723.273-1.68 0-1.445-.596-2.285-.595-.84-1.67-.84t-1.66.85-.586 2.276q0 1.444.586 2.314t1.66.87"/></svg>