<svg width="24" height="24" viewBox="0 0 24 24" fill="none" xmlns="http://www.w3.org/2000/svg">
<path d="M9 21C7.33333 21 5.91667 20.4167 4.75 19.25C3.58333 18.0833 3 16.6667 3 15V9C3 7.33333 3.58333 5.91667 4.75 4.75C5.91667 3.58333 7.33333 3 9 3H15C16.6667 3 18.0833 3.58333 19.25 4.75C20.4167 5.91667 21 7.33333 21 9V15C21 16.6667 20.4167 18.0833 19.25 19.25C18.0833 20.4167 16.6667 21 15 21H9ZM11 13.2L9.5 11.7C9.31667 11.5167 9.08333 11.425 8.8 11.425C8.51667 11.425 8.28333 11.5167 8.1 11.7C7.91667 11.8833 7.825 12.1167 7.825 12.4C7.825 12.6833 7.91667 12.9167 8.1 13.1L10.3 15.3C10.5 15.5 10.7333 15.6 11 15.6C11.2667 15.6 11.5 15.5 11.7 15.3L16.3 10.7C16.4833 10.5167 16.575 10.2833 16.575 10C16.575 9.71667 16.4833 9.48333 16.3 9.3C16.1167 9.11667 15.8833 9.025 15.6 9.025C15.3167 9.025 15.0833 9.11667 14.9 9.3L11 13.2ZM9 19H15C16.1 19 17.0417 18.6083 17.825 17.825C18.6083 17.0417 19 16.1 19 15V9C19 7.9 18.6083 6.95833 17.825 6.175C17.0417 5.39167 16.1 5 15 5H9C7.9 5 6.95833 5.39167 6.175 6.175C5.39167 6.95833 5 7.9 5 9V15C5 16.1 5.39167 17.0417 6.175 17.825C6.95833 18.6083 7.9 19 9 19Z" fill="#C5C5CB"/>
</svg>
